<?xml version="1.0" encoding="UTF-8" standalone="no"?>
<!-- Created with Inkscape (http://www.inkscape.org/) -->

<svg
   xmlns:dc="http://purl.org/dc/elements/1.1/"
   xmlns:cc="http://creativecommons.org/ns#"
   xmlns:rdf="http://www.w3.org/1999/02/22-rdf-syntax-ns#"
   xmlns:svg="http://www.w3.org/2000/svg"
   xmlns="http://www.w3.org/2000/svg"
   version="1.1"
   width="815.6601"
   height="176.09636"
   id="svg3023"
   xml:space="preserve"><metadata
     id="metadata3029"><rdf:RDF><cc:Work
         rdf:about=""><dc:format>image/svg+xml</dc:format><dc:type
           rdf:resource="http://purl.org/dc/dcmitype/StillImage" /><dc:title></dc:title></cc:Work></rdf:RDF></metadata><defs
     id="defs3027"><clipPath
       id="clipPath3037"><path
         d="m 0,595.28 841.89,0 L 841.89,0 0,0 0,595.28 z"
         id="path3039" /></clipPath><clipPath
       id="clipPath3263"><path
         d="m 0,595.28 841.89,0 L 841.89,0 0,0 0,595.28 z"
         id="path3265" /></clipPath></defs><g
     transform="matrix(1.25,0,0,-1.25,-120.79441,489.58718)"
     id="g3031"><g
   id="g3760"><path
     d="m 167.82327,369.04407 -1.67786,-10.61086 c 6.26713,0.494 12.63364,0.74539 18.93584,0.74539 6.38698,0 12.76226,-0.25723 18.95631,-0.76585 l 1.68663,10.66055 c -12.17764,1.43524 -25.26728,1.42355 -37.90092,-0.0292"
     id="path3043"
     style="fill:#64abde;fill-opacity:1;fill-rule:nonzero;stroke:none" /><path
     d="m 154.37262,284.12302 -1.68955,-10.67517 c 12.18348,-1.43524 25.26728,-1.42647 37.90092,0.0263 l 1.68078,10.62547 c -12.58394,-0.98508 -25.64144,-0.97924 -37.89215,0.0234"
     id="path3047"
     style="fill:#64abde;fill-opacity:1;fill-rule:nonzero;stroke:none" /><path
     d="m 196.53776,391.66974 -1.73632,-10.96163 c 26.41606,-1.12539 50.47903,-9.52346 66.4187,-23.15095 l 0.54077,3.42002 c -14.62135,18.10277 -38.34231,29.26024 -65.22315,30.69256"
     id="path3051"
     style="fill:#0082c7;fill-opacity:1;fill-rule:nonzero;stroke:none" /><path
     d="m 215.98603,357.09472 c 16.91014,-2.37063 31.79164,-6.70267 43.17128,-12.57226 l 0.65769,4.1625 c -10.64301,8.64361 -25.22051,15.02474 -42.23003,18.49154 l -1.59894,-10.08178 z"
     id="path3055"
     style="fill:#0082c7;fill-opacity:1;fill-rule:nonzero;stroke:none" /><path
     d="m 203.04605,275.39084 c 18.11153,3.4931 34.71474,9.90054 48.10254,18.57046 l 0.6197,3.91403 c -13.23872,-5.82866 -29.48532,-10.12854 -47.13792,-12.47287 l -1.58432,-10.01162 z"
     id="path3059"
     style="fill:#0082c7;fill-opacity:1;fill-rule:nonzero;stroke:none" /><path
     d="m 184.50833,315.7232 c 26.92468,0.152 52.5515,1.28032 70.58119,3.10726 l 0.75708,4.79096 c -17.49183,1.80355 -42.75619,2.91433 -69.60195,3.05756 l -1.73632,-10.95578 z"
     id="path3063"
     style="fill:#0082c7;fill-opacity:1;fill-rule:nonzero;stroke:none" /><path
     d="m 174.22632,250.80698 c 27.34561,1.4937 54.60352,12.70672 74.97461,30.86209 l 0.48816,3.08388 C 229.43785,271.17222 202.72071,262.82092 175.95972,261.7423 l -1.7334,-10.93532 z"
     id="path3067"
     style="fill:#0082c7;fill-opacity:1;fill-rule:nonzero;stroke:none" /><path
     d="m 220.79307,297.81073 c 12.17179,2.08417 23.03696,4.94589 32.31488,8.50915 l 0.71323,4.52203 c -9.08499,-1.68078 -19.70169,-3.03418 -31.60164,-4.01926 l -1.42647,-9.01192 z"
     id="path3071"
     style="fill:#0082c7;fill-opacity:1;fill-rule:nonzero;stroke:none" /><path
     d="m 149.73395,346.43008 -1.57263,-9.9327 c 10.80963,0.62555 22.06941,0.94709 33.47828,0.94709 29.19008,0 56.62046,-2.13679 75.46569,-5.86374 l 0.73954,4.66819 c -17.8426,7.74622 -44.83744,12.18348 -74.20876,12.18348 -11.51117,0 -22.91418,-0.67523 -33.90212,-2.00232"
     id="path3075"
     style="fill:#0082c7;fill-opacity:1;fill-rule:nonzero;stroke:none" /><path
     d="m 184.17159,391.65542 c -27.34269,-1.49371 -54.6006,-12.70672 -74.97462,-30.8621 l -0.48816,-3.08387 c 20.25125,13.58073 46.97131,21.93202 73.72938,23.00773 l 1.7334,10.93824 z"
     id="path3079"
     style="fill:#77c14f;fill-opacity:1;fill-rule:nonzero;stroke:none" /><path
     d="m 155.36033,367.12856 c -18.11445,-3.49895 -34.71766,-9.91516 -48.10547,-18.59092 l -0.61969,-3.90527 c 13.24164,5.84328 29.49408,10.15193 47.14377,12.49626 l 1.58139,9.99993 z"
     id="path3083"
     style="fill:#77c14f;fill-opacity:1;fill-rule:nonzero;stroke:none" /><path
     d="m 137.60454,344.66599 c -12.17179,-2.08709 -23.03403,-4.94881 -32.31195,-8.51499 l -0.71616,-4.52204 c 9.09084,1.68663 19.71047,3.0371 31.60164,4.02511 l 1.42647,9.01192 z"
     id="path3087"
     style="fill:#77c14f;fill-opacity:1;fill-rule:nonzero;stroke:none" /><path
     d="m 173.88081,326.67635 c -26.93053,-0.14908 -52.55443,-1.2657 -70.57827,-3.08095 l -0.75708,-4.79096 c 17.49183,-1.81525 42.75327,-2.93479 69.59903,-3.08095 l 1.73632,10.95286 z"
     id="path3091"
     style="fill:#77c14f;fill-opacity:1;fill-rule:nonzero;stroke:none" /><path
     d="m 176.75831,305.03576 c -29.19009,0 -56.61754,2.13094 -75.46569,5.85497 l -0.73955,-4.66527 c 17.84553,-7.74329 44.84037,-12.18056 74.21168,-12.18056 l 0.003,-0.80385 0,0.80385 c 11.50825,0 22.91126,0.67523 33.8992,2.00232 l 1.57555,9.93562 c -10.81255,-0.63139 -22.07526,-0.94708 -33.48412,-0.94708"
     id="path3095"
     style="fill:#77c14f;fill-opacity:1;fill-rule:nonzero;stroke:none" /><path
     d="m 142.41451,285.39603 c -16.90722,2.36771 -31.78873,6.69682 -43.17128,12.56349 l -0.657698,-4.16542 c 10.643008,-8.63777 25.223438,-15.01597 42.232958,-18.47985 l 1.59602,10.08178 z"
     id="path3099"
     style="fill:#77c14f;fill-opacity:1;fill-rule:nonzero;stroke:none" /><path
     d="M 96.635532,281.48521 C 111.26273,263.38245 134.97784,252.22497 161.8616,250.79265 l 1.73632,10.96163 c -26.41606,1.12539 -50.48195,9.52346 -66.418692,23.15388 l -0.543696,-3.42295 z"
     id="path3103"
     style="fill:#77c14f;fill-opacity:1;fill-rule:nonzero;stroke:none" /><path
     d="m 388.21922,361.3452 -28.43885,-63.93698 -5.99528,40.19556 11.0464,23.74142 -17.62922,0 -28.20792,-63.58329 -8.81315,63.58329 -17.1586,0 13.27964,-86.0327 19.50878,0 16.45413,35.37829 5.40774,-35.37829 18.56754,0 39.37416,86.0327 -17.39537,0 z"
     id="path3107"
     style="fill:#ffffff;fill-opacity:1;fill-rule:nonzero;stroke:none" /><path
     d="m 434.98591,324.55827 -4.46357,-30.08748 c -3.76203,-3.64218 -7.52407,-5.87835 -14.34074,-5.87835 -7.28729,0 -8.10868,6.81667 -6.34605,18.57338 2.4671,15.74675 7.40422,17.39245 12.69211,18.45061 3.40833,0.82432 8.81607,0.23385 12.45825,-1.05816 m -11.63394,14.33781 c -11.04932,-0.58754 -24.56574,-2.93772 -29.49993,-28.67562 -4.93712,-25.74082 4.22972,-35.61214 16.33721,-35.61214 7.52114,0 15.86366,3.40834 18.92123,7.28729 l 2.4671,-6.46589 12.69502,0 8.22561,56.17907 c -5.99528,5.76143 -20.21617,7.75791 -29.14624,7.28729"
     id="path3111"
     style="fill:#ffffff;fill-opacity:1;fill-rule:nonzero;stroke:none" /><path
     d="m 483.51962,367.3399 -16.45414,0 -11.0464,-69.81534 c -2.58694,-15.98352 3.99588,-22.20972 15.1592,-22.20972 l 10.57578,0 1.53171,10.225 c -0.47062,0 -6.81667,2.34725 -6.81667,2.34725 -3.40834,1.29494 -5.17389,2.47002 -3.64511,12.22441 l 10.69563,67.2284 z"
     id="path3115"
     style="fill:#ffffff;fill-opacity:1;fill-rule:nonzero;stroke:none" /><path
     d="m 518.42261,367.3399 -16.45414,0 -11.04639,-69.81534 c -2.58695,-15.98352 3.99587,-22.20972 15.1592,-22.20972 l 10.57577,0 1.53171,10.225 c -0.47062,0 -6.81667,2.34725 -6.81667,2.34725 -3.40834,1.29494 -5.17389,2.47002 -3.64511,12.22441 l 10.69563,67.2284 z"
     id="path3119"
     style="fill:#ffffff;fill-opacity:1;fill-rule:nonzero;stroke:none" /><path
     d="m 545.21312,300.22843 3.87895,25.03343 13.98412,0 1.9994,12.57518 -13.98412,0 2.8208,17.39537 -13.75319,0 -5.52174,-17.39537 -10.5787,-3.40833 -1.41186,-9.16685 9.99116,0 -4.34957,-27.61745 c -2.4671,-15.98644 4.11572,-22.4465 14.45765,-22.4465 l 11.28317,0 1.64571,10.34193 c -0.58755,0 -6.93652,2.23033 -6.93652,2.23033 -3.40834,1.29493 -5.05112,2.58694 -3.52526,12.45826"
     id="path3123"
     style="fill:#ffffff;fill-opacity:1;fill-rule:nonzero;stroke:none" /><path
     d="m 574.70662,344.18631 12.34426,0 c 1.64278,0 2.82079,0.93831 3.05464,2.70387 l 1.64278,10.45885 c 0.23677,1.64278 -0.4677,2.93772 -2.23325,2.93772 l -12.33841,0 c -1.88248,0 -3.05464,-1.17509 -3.29141,-2.93772 l -1.52878,-10.45885 c -0.23385,-1.64863 0.70447,-2.70387 2.35017,-2.70387"
     id="path3127"
     style="fill:#ffffff;fill-opacity:1;fill-rule:nonzero;stroke:none" /><path
     d="m 571.53535,337.7207 -9.87424,-62.4082 16.45414,0 9.87423,62.4082 -16.45413,0 z"
     id="path3131"
     style="fill:#ffffff;fill-opacity:1;fill-rule:nonzero;stroke:none" /><path
     d="m 671.90265,338.66282 c -10.10516,0 -17.74323,-4.4665 -23.97528,-8.58223 -1.76263,5.05404 -6.93359,8.58223 -14.57458,8.58223 -9.63454,0 -14.45473,-3.64511 -20.68386,-7.64099 l -2.23032,6.69975 -13.16565,0 -9.87131,-62.4082 16.45413,0 7.05052,44.77605 c 5.40482,3.64803 8.93007,5.29082 15.5129,5.29082 3.9988,0 6.58282,-2.58695 5.64158,-8.45946 l -6.5799,-41.60741 16.45414,0 6.5799,41.25079 c 0,0.59047 0.47062,3.40834 0.58754,3.88188 4.93712,3.75911 9.40362,4.9342 15.98644,4.9342 3.99295,0 6.46297,-2.58695 5.52466,-8.45946 l -6.58282,-41.60741 16.45413,0 6.58282,41.37064 c 1.99648,12.57518 -1.76555,21.9788 -15.16504,21.9788"
     id="path3135"
     style="fill:#ffffff;fill-opacity:1;fill-rule:nonzero;stroke:none" /><path
     d="m 723.48807,325.61731 c 6.58282,0.11692 9.75731,-1.17509 8.69915,-6.93652 -1.99941,-11.51701 -22.44942,-8.10576 -22.44942,-8.10576 1.52586,7.75499 2.58695,14.92243 13.75027,15.04228 m 25.6239,-4.70035 c 0.93831,14.33781 -11.04932,18.09692 -24.44882,17.98 -22.91711,-0.11693 -28.08807,-9.16685 -31.73026,-28.32193 -4.23265,-22.80311 0.58462,-35.37829 15.5129,-36.08275 13.04288,-0.82139 23.15096,0.58754 32.55457,3.40833 l 1.99941,11.75087 c -7.28729,-1.17509 -18.57046,-2.23033 -25.50406,-1.99648 -8.34545,0.11692 -10.69562,2.58402 -9.04992,12.10456 4.34957,-1.76263 38.7837,-7.28729 40.66618,21.1574"
     id="path3139"
     style="fill:#ffffff;fill-opacity:1;fill-rule:nonzero;stroke:none" /></g>
</g></svg>