<?xml version="1.0" encoding="UTF-8" standalone="no"?>
<!-- Created with Inkscape (http://www.inkscape.org/) -->

<svg
   xmlns:dc="http://purl.org/dc/elements/1.1/"
   xmlns:cc="http://creativecommons.org/ns#"
   xmlns:rdf="http://www.w3.org/1999/02/22-rdf-syntax-ns#"
   xmlns:svg="http://www.w3.org/2000/svg"
   xmlns="http://www.w3.org/2000/svg"
   xmlns:sodipodi="http://sodipodi.sourceforge.net/DTD/sodipodi-0.dtd"
   xmlns:inkscape="http://www.inkscape.org/namespaces/inkscape"
   version="1.1"
   width="815.6601"
   height="176.09636"
   id="svg3023"
   xml:space="preserve"
   inkscape:version="0.48.2 r9819"
   sodipodi:docname="logo-black.svg"><sodipodi:namedview
     pagecolor="#ffffff"
     bordercolor="#666666"
     borderopacity="1"
     objecttolerance="10"
     gridtolerance="10"
     guidetolerance="10"
     inkscape:pageopacity="0"
     inkscape:pageshadow="2"
     inkscape:window-width="721"
     inkscape:window-height="480"
     id="namedview36"
     showgrid="false"
     inkscape:zoom="0.43155231"
     inkscape:cx="574.58304"
     inkscape:cy="88.04818"
     inkscape:window-x="523"
     inkscape:window-y="114"
     inkscape:window-maximized="0"
     inkscape:current-layer="svg3023" /><metadata
     id="metadata3029"><rdf:RDF><cc:Work
         rdf:about=""><dc:format>image/svg+xml</dc:format><dc:type
           rdf:resource="http://purl.org/dc/dcmitype/StillImage" /><dc:title /></cc:Work></rdf:RDF></metadata><defs
     id="defs3027"><clipPath
   id="clipPath3037"><path
     d="m 0,595.28 841.89,0 L 841.89,0 0,0 0,595.28 z"
     id="path3039" /></clipPath><clipPath
   id="clipPath3263"><path
     d="m 0,595.28 841.89,0 L 841.89,0 0,0 0,595.28 z"
     id="path3265" /></clipPath>
</defs><path
     d="m 88.984678,28.282093 -2.097326,13.263575 c 7.833913,-0.617501 15.792048,-0.931738 23.669798,-0.931738 7.98373,0 15.95283,0.321538 23.69539,0.957313 l 2.10829,-13.325688 c -15.22205,-1.79405 -31.5841,-1.779437 -47.376152,0.0365"
     id="path3043"
     style="fill:#64abde;fill-opacity:1;fill-rule:nonzero;stroke:none"
     inkscape:connector-curvature="0" /><path
     d="m 72.171365,134.4334 -2.111937,13.34397 c 15.22935,1.79405 31.584102,1.78308 47.376152,-0.0329 l 2.10097,-13.28184 c -15.72992,1.23135 -32.051797,1.22405 -47.365185,-0.0292"
     id="path3047"
     style="fill:#64abde;fill-opacity:1;fill-rule:nonzero;stroke:none"
     inkscape:connector-curvature="0" /><path
     d="m 124.87779,5e-6 -2.1704,13.702038 c 33.02007,1.406737 63.09879,11.904325 83.02337,28.938687 l 0.67597,-4.275025 C 188.13004,15.737242 158.47884,1.790405 124.87779,5e-6"
     id="path3051"
     style="fill:#0082c7;fill-opacity:1;fill-rule:nonzero;stroke:none"
     inkscape:connector-curvature="0" /><path
     d="m 149.18813,43.21878 c 21.13767,2.963288 39.73955,8.378338 53.9641,15.715325 l 0.82211,-5.203125 C 190.67058,42.926467 172.4487,34.950055 151.1868,30.616555 l -1.99867,12.602225 z"
     id="path3055"
     style="fill:#0082c7;fill-opacity:1;fill-rule:nonzero;stroke:none"
     inkscape:connector-curvature="0" /><path
     d="m 133.01315,145.34863 c 22.63941,-4.36638 43.39343,-12.37568 60.12818,-23.21308 l 0.77462,-4.89253 c -16.5484,7.28582 -36.85665,12.66067 -58.9224,15.59108 l -1.9804,12.51453 z"
     id="path3059"
     style="fill:#0082c7;fill-opacity:1;fill-rule:nonzero;stroke:none"
     inkscape:connector-curvature="0" /><path
     d="m 109.841,94.93318 c 33.65585,-0.19 65.68938,-1.6004 88.22649,-3.884075 l 0.94635,-5.9887 C 177.14905,82.805968 145.5686,81.417492 112.0114,81.238455 L 109.841,94.93318 z"
     id="path3063"
     style="fill:#0082c7;fill-opacity:1;fill-rule:nonzero;stroke:none"
     inkscape:connector-curvature="0" /><path
     d="m 96.98849,176.07845 c 34.18201,-1.86712 68.2544,-15.8834 93.71826,-38.57761 l 0.6102,-3.85485 c -25.31405,16.97592 -58.71047,27.41504 -92.16171,28.76332 l -2.16675,13.66914 z"
     id="path3067"
     style="fill:#0082c7;fill-opacity:1;fill-rule:nonzero;stroke:none"
     inkscape:connector-curvature="0" /><path
     d="m 155.19693,117.32377 c 15.21473,-2.60521 28.7962,-6.18237 40.3936,-10.63644 l 0.89153,-5.65254 c -11.35623,2.10098 -24.62711,3.79273 -39.50205,5.02408 l -1.78308,11.2649 z"
     id="path3071"
     style="fill:#0082c7;fill-opacity:1;fill-rule:nonzero;stroke:none"
     inkscape:connector-curvature="0" /><path
     d="M 66.373028,56.54958 64.40724,68.965455 c 13.512037,-0.781937 27.586762,-1.183862 41.84785,-1.183862 36.4876,0 70.77557,2.670987 94.33211,7.329675 l 0.92443,-5.835238 c -22.30325,-9.682775 -56.0468,-15.22935 -92.76095,-15.22935 -14.388965,0 -28.642728,0.844038 -42.377653,2.5029"
     id="path3075"
     style="fill:#0082c7;fill-opacity:1;fill-rule:nonzero;stroke:none"
     inkscape:connector-curvature="0" /><path
     d="M 109.42008,0.017905 C 75.241715,1.8850425 41.169327,15.901305 15.701803,38.59553 l -0.6102,3.854837 C 40.405665,25.474455 73.80574,15.035342 107.25333,13.690705 l 2.16675,-13.6728 z"
     id="path3079"
     style="fill:#77c14f;fill-opacity:1;fill-rule:nonzero;stroke:none"
     inkscape:connector-curvature="0" /><path
     d="M 73.406002,30.67648 C 50.76294,35.050167 30.008927,43.07043 13.274165,53.91513 l -0.774613,4.881587 C 29.051603,51.492617 49.367153,46.106805 71.429265,43.176392 L 73.406002,30.67648 z"
     id="path3083"
     style="fill:#77c14f;fill-opacity:1;fill-rule:nonzero;stroke:none"
     inkscape:connector-curvature="0" /><path
     d="M 51.211265,58.754692 C 35.996527,61.363555 22.418727,64.940705 10.821327,69.39843 L 9.9261275,75.05098 C 21.289677,72.942693 34.564215,71.254605 49.428177,70.019592 l 1.783088,-11.264899 z"
     id="path3087"
     style="fill:#77c14f;fill-opacity:1;fill-rule:nonzero;stroke:none"
     inkscape:connector-curvature="0" /><path
     d="M 96.556602,81.241742 C 62.89344,81.428092 30.863565,82.823867 8.333765,85.09293 l -0.94635,5.9887 c 21.864787,2.269062 53.441587,3.668487 86.998787,3.851187 l 2.1704,-13.691075 z"
     id="path3091"
     style="fill:#77c14f;fill-opacity:1;fill-rule:nonzero;stroke:none"
     inkscape:connector-curvature="0" /><path
     d="m 100.15348,108.29248 c -36.487615,0 -70.771928,-2.66367 -94.332115,-7.31871 l -0.9244375,5.83159 c 22.3069125,9.67911 56.0504625,15.2257 92.7646005,15.2257 l 0.0037,1.00481 0,-1.00481 c 14.385313,0 28.639073,-0.84404 42.374003,-2.5029 l 1.96943,-12.41953 c -13.51568,0.78924 -27.59407,1.18385 -41.85515,1.18385"
     id="path3095"
     style="fill:#77c14f;fill-opacity:1;fill-rule:nonzero;stroke:none"
     inkscape:connector-curvature="0" /><path
     d="M 57.223728,132.84214 C 36.089703,129.88251 17.487815,124.47112 3.2596275,117.13778 l -0.8221225,5.20677 c 13.30376,10.79722 31.529298,18.76997 52.791198,23.09982 l 1.995025,-12.60223 z"
     id="path3099"
     style="fill:#77c14f;fill-opacity:1;fill-rule:nonzero;stroke:none"
     inkscape:connector-curvature="0" /><path
     d="m 5e-6,137.73067 c 18.283998,22.62845 47.927885,36.5753 81.532585,38.3657 l 2.1704,-13.70204 C 50.682915,160.98759 20.600553,150.49 0.679625,133.45198 L 5e-6,137.73067 z"
     id="path3103"
     style="fill:#77c14f;fill-opacity:1;fill-rule:nonzero;stroke:none"
     inkscape:connector-curvature="0" /><path
     d="m 364.47961,37.90568 -35.54856,79.92123 -7.4941,-50.244455 13.808,-29.676775 -22.03652,0 -35.2599,79.47911 -11.01644,-79.47911 -21.44825,0 16.59955,107.54087 24.38598,0 20.56766,-44.22286 6.75967,44.22286 23.20943,0 49.2177,-107.54087 -21.74421,0 z"
     id="path3107"
     style="fill:#2a3236;fill-opacity:1;fill-rule:nonzero;stroke:none"
     inkscape:connector-curvature="0" /><path
     d="m 422.93798,83.889342 -5.57947,37.609348 c -4.70253,4.55273 -9.40508,7.34794 -17.92592,7.34794 -9.10911,0 -10.13585,-8.52084 -7.93256,-23.21672 3.08387,-19.683442 9.25527,-21.740567 15.86514,-23.063267 4.26041,-1.0304 11.02008,-0.292313 15.57281,1.3227 M 408.39555,65.96708 c -13.81165,0.734425 -30.70717,3.67215 -36.87491,35.84453 -6.1714,32.17602 5.28715,44.51517 20.42151,44.51517 9.40143,0 19.82958,-4.26042 23.65154,-9.10911 l 3.08388,8.08236 15.86877,0 10.28201,-70.223837 c -7.4941,-7.201788 -25.27021,-9.697388 -36.4328,-9.109113"
     id="path3111"
     style="fill:#2a3236;fill-opacity:1;fill-rule:nonzero;stroke:none"
     inkscape:connector-curvature="0" /><path
     d="m 483.60511,30.412305 -20.56767,0 -13.808,87.269175 c -3.23368,19.9794 4.99485,27.76215 18.949,27.76215 l 13.21973,0 1.91463,-12.78125 c -0.58827,0 -8.52084,-2.93406 -8.52084,-2.93406 -4.26042,-1.61868 -6.46736,-3.08753 -4.55638,-15.28051 l 13.36953,-84.035505 z"
     id="path3115"
     style="fill:#2a3236;fill-opacity:1;fill-rule:nonzero;stroke:none"
     inkscape:connector-curvature="0" /><path
     d="m 527.23385,30.412305 -20.56767,0 -13.80799,87.269175 c -3.23369,19.9794 4.99484,27.76215 18.949,27.76215 l 13.21971,0 1.91464,-12.78125 c -0.58828,0 -8.52084,-2.93406 -8.52084,-2.93406 -4.26042,-1.61868 -6.46736,-3.08753 -4.55638,-15.28051 l 13.36953,-84.035505 z"
     id="path3119"
     style="fill:#2a3236;fill-opacity:1;fill-rule:nonzero;stroke:none"
     inkscape:connector-curvature="0" /><path
     d="m 560.72199,114.30164 4.84869,-31.291785 17.48015,0 2.49925,-15.718975 -17.48015,0 3.526,-21.744213 -17.19149,0 -6.90217,21.744213 -13.22338,4.260412 -1.76483,11.458563 12.48895,0 -5.43696,34.521815 c -3.08387,19.98305 5.14465,28.05812 18.07206,28.05812 l 14.10397,0 2.05713,-12.92741 c -0.73443,0 -8.67065,-2.78791 -8.67065,-2.78791 -4.26042,-1.61867 -6.31389,-3.23368 -4.40657,-15.57283"
     id="path3123"
     style="fill:#2a3236;fill-opacity:1;fill-rule:nonzero;stroke:none"
     inkscape:connector-curvature="0" /><path
     d="m 597.58887,59.354292 15.43032,0 c 2.05348,0 3.52599,-1.172887 3.8183,-3.379837 l 2.05348,-13.073562 c 0.29596,-2.053475 -0.58463,-3.67215 -2.79157,-3.67215 l -15.42301,0 c -2.3531,0 -3.8183,1.468862 -4.11426,3.67215 l -1.91098,13.073562 c -0.29231,2.060788 0.88059,3.379837 2.93772,3.379837"
     id="path3127"
     style="fill:#2a3236;fill-opacity:1;fill-rule:nonzero;stroke:none"
     inkscape:connector-curvature="0" /><path
     d="m 593.62478,67.436305 -12.3428,78.010245 20.56767,0 12.34279,-78.010245 -20.56766,0 z"
     id="path3131"
     style="fill:#2a3236;fill-opacity:1;fill-rule:nonzero;stroke:none"
     inkscape:connector-curvature="0" /><path
     d="m 719.0839,66.258655 c -12.63145,0 -22.17904,5.583125 -29.9691,10.727787 -2.20328,-6.31755 -8.66699,-10.727787 -18.21822,-10.727787 -12.04318,0 -18.06841,4.556387 -25.85483,9.551237 l -2.7879,-8.374687 -16.45706,0 -12.33914,78.010245 20.56766,0 8.81316,-55.970058 c 6.75602,-4.560037 11.16258,-6.613524 19.39112,-6.613524 4.9985,0 8.22852,3.233687 7.05197,10.574324 l -8.22487,52.009258 20.56767,0 8.22488,-51.563483 c 0,-0.738087 0.58828,-4.260425 0.73442,-4.85235 6.17141,-4.698887 11.75453,-6.167749 19.98305,-6.167749 4.99119,0 8.07872,3.233687 6.90583,10.574324 l -8.22852,52.009258 20.56766,0 8.22852,-51.713295 c 2.4956,-15.718975 -2.20694,-27.4735 -18.9563,-27.4735"
     id="path3135"
     style="fill:#2a3236;fill-opacity:1;fill-rule:nonzero;stroke:none"
     inkscape:connector-curvature="0" /><path
     d="m 783.56568,82.565542 c 8.22852,-0.146149 12.19663,1.468863 10.87393,8.670651 -2.49926,14.396267 -28.06177,10.132197 -28.06177,10.132197 1.90732,-9.693735 3.23369,-18.653035 17.18784,-18.802848 m 32.02987,5.875438 c 1.17289,-17.922263 -13.81165,-22.62115 -30.56102,-22.475 -28.64639,0.146163 -35.11009,11.458562 -39.66283,35.40241 -5.29081,28.50389 0.73078,44.22286 19.39113,45.10344 16.3036,1.02674 28.9387,-0.73443 40.69321,-4.26041 l 2.49926,-14.68859 c -9.10911,1.46886 -23.21307,2.78791 -31.88007,2.4956 -10.43182,-0.14615 -13.36953,-3.23003 -11.3124,-15.1307 5.43696,2.20329 48.47962,9.10911 50.83272,-26.44675"
     id="path3139"
     style="fill:#2a3236;fill-opacity:1;fill-rule:nonzero;stroke:none"
     inkscape:connector-curvature="0" /></svg>