<?xml version="1.0" encoding="UTF-8" standalone="no"?>
<!-- Created with Inkscape (http://www.inkscape.org/) -->

<svg
   xmlns:dc="http://purl.org/dc/elements/1.1/"
   xmlns:cc="http://creativecommons.org/ns#"
   xmlns:rdf="http://www.w3.org/1999/02/22-rdf-syntax-ns#"
   xmlns:svg="http://www.w3.org/2000/svg"
   xmlns="http://www.w3.org/2000/svg"
   xmlns:sodipodi="http://sodipodi.sourceforge.net/DTD/sodipodi-0.dtd"
   xmlns:inkscape="http://www.inkscape.org/namespaces/inkscape"
   version="1.1"
   width="206.40672"
   height="176.09636"
   id="svg3023"
   xml:space="preserve"
   inkscape:version="0.48.2 r9819"
   sodipodi:docname="logo-square.svg"><sodipodi:namedview
     pagecolor="#ffffff"
     bordercolor="#666666"
     borderopacity="1"
     objecttolerance="10"
     gridtolerance="10"
     guidetolerance="10"
     inkscape:pageopacity="0"
     inkscape:pageshadow="2"
     inkscape:window-width="886"
     inkscape:window-height="626"
     id="namedview36"
     showgrid="false"
     inkscape:zoom="0.43155231"
     inkscape:cx="407.83004"
     inkscape:cy="88.048164"
     inkscape:window-x="92"
     inkscape:window-y="34"
     inkscape:window-maximized="0"
     inkscape:current-layer="svg3023"
     fit-margin-top="0"
     fit-margin-left="0"
     fit-margin-right="0"
     fit-margin-bottom="0" /><metadata
     id="metadata3029"><rdf:RDF><cc:Work
         rdf:about=""><dc:format>image/svg+xml</dc:format><dc:type
           rdf:resource="http://purl.org/dc/dcmitype/StillImage" /><dc:title></dc:title></cc:Work></rdf:RDF></metadata><defs
     id="defs3027"><clipPath
   id="clipPath3037"><path
     d="m 0,595.28 841.89,0 L 841.89,0 0,0 0,595.28 z"
     id="path3039"
     inkscape:connector-curvature="0" /></clipPath><clipPath
   id="clipPath3263"><path
     d="m 0,595.28 841.89,0 L 841.89,0 0,0 0,595.28 z"
     id="path3265"
     inkscape:connector-curvature="0" /></clipPath>
</defs><path
     d="m 88.984673,28.282088 -2.097326,13.263575 c 7.833913,-0.617501 15.792053,-0.931738 23.669803,-0.931738 7.98373,0 15.95283,0.321538 23.69539,0.957313 l 2.10829,-13.325688 c -15.22205,-1.79405 -31.5841,-1.779437 -47.376157,0.0365"
     id="path3043"
     style="fill:#64abde;fill-opacity:1;fill-rule:nonzero;stroke:none"
     inkscape:connector-curvature="0" /><path
     d="m 72.17136,134.43339 -2.111937,13.34397 c 15.22935,1.79405 31.584097,1.78309 47.376147,-0.0329 l 2.10097,-13.28184 c -15.72992,1.23135 -32.051792,1.22405 -47.36518,-0.0293"
     id="path3047"
     style="fill:#64abde;fill-opacity:1;fill-rule:nonzero;stroke:none"
     inkscape:connector-curvature="0" /><path
     d="m 124.87779,0 -2.1704,13.702038 c 33.02007,1.406737 63.09879,11.904325 83.02337,28.938687 L 206.40673,38.3657 C 188.13004,15.737237 158.47883,1.7904 124.87779,0"
     id="path3051"
     style="fill:#0082c7;fill-opacity:1;fill-rule:nonzero;stroke:none"
     inkscape:connector-curvature="0" /><path
     d="m 149.18813,43.218775 c 21.13767,2.963288 39.73955,8.378338 53.9641,15.715325 l 0.82211,-5.203125 C 190.67058,42.926462 172.4487,34.95005 151.1868,30.61655 l -1.99867,12.602225 z"
     id="path3055"
     style="fill:#0082c7;fill-opacity:1;fill-rule:nonzero;stroke:none"
     inkscape:connector-curvature="0" /><path
     d="m 133.01314,145.34862 c 22.63941,-4.36638 43.39343,-12.37568 60.12818,-23.21308 l 0.77462,-4.89252 c -16.5484,7.28582 -36.85665,12.66066 -58.9224,15.59107 l -1.9804,12.51453 z"
     id="path3059"
     style="fill:#0082c7;fill-opacity:1;fill-rule:nonzero;stroke:none"
     inkscape:connector-curvature="0" /><path
     d="m 109.84099,94.933175 c 33.65585,-0.19 65.68938,-1.6004 88.22649,-3.884075 l 0.94635,-5.9887 C 177.14904,82.805963 145.5686,81.417487 112.01139,81.23845 l -2.1704,13.694725 z"
     id="path3063"
     style="fill:#0082c7;fill-opacity:1;fill-rule:nonzero;stroke:none"
     inkscape:connector-curvature="0" /><path
     d="m 96.988485,176.07844 c 34.182015,-1.86712 68.254395,-15.8834 93.718255,-38.57761 l 0.6102,-3.85485 c -25.31405,16.97592 -58.71047,27.41504 -92.161705,28.76332 l -2.16675,13.66914 z"
     id="path3067"
     style="fill:#0082c7;fill-opacity:1;fill-rule:nonzero;stroke:none"
     inkscape:connector-curvature="0" /><path
     d="m 155.19693,117.32376 c 15.21473,-2.60521 28.7962,-6.18237 40.3936,-10.63644 l 0.89152,-5.65254 c -11.35623,2.10098 -24.6271,3.79273 -39.50205,5.02408 l -1.78308,11.2649 z"
     id="path3071"
     style="fill:#0082c7;fill-opacity:1;fill-rule:nonzero;stroke:none"
     inkscape:connector-curvature="0" /><path
     d="M 66.373023,56.549575 64.407235,68.96545 c 13.512037,-0.781937 27.586762,-1.183862 41.847845,-1.183862 36.4876,0 70.77558,2.670987 94.33211,7.329675 l 0.92443,-5.835238 c -22.30324,-9.682775 -56.04679,-15.22935 -92.76094,-15.22935 -14.38897,0 -28.642733,0.844038 -42.377658,2.5029"
     id="path3075"
     style="fill:#0082c7;fill-opacity:1;fill-rule:nonzero;stroke:none"
     inkscape:connector-curvature="0" /><path
     d="M 109.42007,0.0179 C 75.24171,1.8850375 41.169322,15.9013 15.701798,38.595525 l -0.6102,3.854837 C 40.40566,25.47445 73.805735,15.035337 107.25333,13.6907 l 2.16674,-13.6728 z"
     id="path3079"
     style="fill:#77c14f;fill-opacity:1;fill-rule:nonzero;stroke:none"
     inkscape:connector-curvature="0" /><path
     d="M 73.405997,30.676475 C 50.762935,35.050162 30.008922,43.070425 13.27416,53.915125 l -0.774613,4.881587 C 29.051598,51.492612 49.367148,46.1068 71.42926,43.176387 l 1.976737,-12.499912 z"
     id="path3083"
     style="fill:#77c14f;fill-opacity:1;fill-rule:nonzero;stroke:none"
     inkscape:connector-curvature="0" /><path
     d="M 51.21126,58.754687 C 35.996522,61.36355 22.418722,64.9407 10.821322,69.398425 l -0.8951995,5.65255 C 21.289672,72.942688 34.56421,71.2546 49.428172,70.019587 L 51.21126,58.754688 z"
     id="path3087"
     style="fill:#77c14f;fill-opacity:1;fill-rule:nonzero;stroke:none"
     inkscape:connector-curvature="0" /><path
     d="M 96.556597,81.241737 C 62.893435,81.428088 30.86356,82.823862 8.33376,85.092925 l -0.94635,5.9887 c 21.864787,2.269062 53.441587,3.668487 86.998787,3.851187 l 2.1704,-13.691075 z"
     id="path3091"
     style="fill:#77c14f;fill-opacity:1;fill-rule:nonzero;stroke:none"
     inkscape:connector-curvature="0" /><path
     d="m 100.15348,108.29247 c -36.48762,0 -70.771933,-2.66366 -94.33212,-7.3187 l -0.9244375,5.83159 c 22.3069125,9.67911 56.0504625,15.2257 92.7646005,15.2257 l 0.0037,1.00481 0,-1.00481 c 14.385307,0 28.639067,-0.84404 42.374007,-2.5029 l 1.96942,-12.41953 c -13.51568,0.78924 -27.59407,1.18385 -41.85515,1.18385"
     id="path3095"
     style="fill:#77c14f;fill-opacity:1;fill-rule:nonzero;stroke:none"
     inkscape:connector-curvature="0" /><path
     d="M 57.223723,132.84214 C 36.089698,129.8825 17.48781,124.47111 3.2596225,117.13778 L 2.4375,122.34455 c 13.30376,10.79722 31.529298,18.76996 52.791198,23.09981 l 1.995025,-12.60222 z"
     id="path3099"
     style="fill:#77c14f;fill-opacity:1;fill-rule:nonzero;stroke:none"
     inkscape:connector-curvature="0" /><path
     d="m 0,137.73066 c 18.283998,22.62845 47.927885,36.5753 81.532585,38.3657 l 2.1704,-13.70204 C 50.68291,160.98758 20.600548,150.48999 0.67962,133.45197 L 0,137.73066 z"
     id="path3103"
     style="fill:#77c14f;fill-opacity:1;fill-rule:nonzero;stroke:none"
     inkscape:connector-curvature="0" /></svg>